<?xml version="1.0" standalone="no"?>
<!DOCTYPE svg PUBLIC "-//W3C//DTD SVG 20010904//EN"
 "http://www.w3.org/TR/2001/REC-SVG-20010904/DTD/svg10.dtd">
<svg version="1.0" xmlns="http://www.w3.org/2000/svg"
 width="500.000000pt" height="500.000000pt" viewBox="0 0 500.000000 500.000000"
 preserveAspectRatio="xMidYMid meet">
<metadata>
Created by potrace 1.14, written by Peter Selinger 2001-2017
</metadata>
<g transform="translate(0.000000,500.000000) scale(0.100000,-0.100000)"
fill="#000000" stroke="none">
<path d="M2305 3622 c-5 -5 -16 -7 -120 -17 -187 -18 -277 -32 -284 -44 -4 -6
-46 -12 -93 -15 -47 -2 -94 -9 -105 -14 -10 -6 -35 -13 -56 -16 -21 -3 -53
-13 -72 -20 -19 -8 -35 -13 -35 -11 0 2 -25 -5 -57 -16 -31 -10 -63 -19 -71
-19 -8 0 -45 -15 -82 -34 -37 -19 -83 -38 -103 -41 -20 -4 -48 -18 -62 -31
-24 -22 -64 -48 -75 -49 -23 -1 -149 -63 -165 -80 -26 -28 -89 -73 -106 -77
-21 -4 -138 -165 -166 -226 -13 -30 -26 -83 -29 -122 -6 -59 -4 -73 15 -104
44 -70 98 -89 275 -95 l39 -1 -23 -25 c-19 -21 -30 -24 -57 -19 -37 7 -96 -12
-87 -28 8 -13 -16 -59 -28 -52 -4 3 -6 10 -3 15 4 5 1 9 -5 9 -6 0 -8 5 -5 10
3 6 1 11 -4 11 -6 1 -17 2 -23 3 -7 1 -18 -2 -25 -7 -25 -19 -107 -11 -162 16
-30 15 -57 24 -60 21 -9 -8 41 -42 71 -49 17 -4 28 -13 28 -24 0 -9 6 -23 12
-30 11 -10 9 -15 -7 -26 -55 -38 -64 -49 -58 -77 4 -19 -4 -45 -26 -87 -17
-33 -31 -64 -31 -70 0 -11 22 -20 69 -27 44 -7 77 -24 65 -33 -5 -3 -20 -26
-33 -51 -22 -39 -25 -60 -28 -155 -1 -60 2 -130 8 -154 12 -55 92 -180 116
-183 10 0 23 -2 30 -2 27 -3 34 -22 19 -57 -26 -63 -11 -215 30 -304 28 -62
44 -77 117 -110 59 -27 216 -69 225 -60 3 3 10 1 16 -4 6 -5 40 -12 76 -15 36
-3 76 -7 90 -10 14 -3 50 -8 80 -11 30 -4 71 -8 90 -10 19 -3 62 -7 95 -10 33
-3 76 -8 95 -10 19 -2 73 -6 118 -9 46 -3 89 -9 95 -13 7 -4 22 -6 35 -4 14 1
22 -3 22 -12 0 -22 -32 -31 -43 -12 -8 15 -10 15 -28 -1 -16 -14 -25 -15 -53
-7 -51 16 -76 -16 -38 -50 18 -17 82 -17 185 -2 39 6 48 12 53 32 7 28 5 32
-26 38 -27 5 -39 15 -19 16 8 0 201 2 429 4 402 3 577 8 765 20 167 10 260 17
290 20 17 2 56 6 87 9 32 3 70 8 85 10 24 4 58 8 158 21 44 5 171 27 185 32 8
3 28 7 43 9 58 8 183 58 229 91 26 19 55 50 64 69 22 47 23 224 0 276 -9 21
-16 39 -16 41 0 1 19 11 43 21 47 19 62 43 72 116 3 25 10 59 14 76 5 17 8 66
7 110 -2 75 -1 81 26 108 25 24 36 28 86 28 32 0 68 7 82 15 29 17 55 66 46
88 -7 20 -52 38 -101 40 -22 0 -49 6 -59 12 -17 9 -15 12 17 22 19 7 48 14 64
17 15 3 30 9 31 15 2 5 10 9 17 9 21 0 48 42 33 51 -7 5 -18 3 -25 -3 -7 -6
-13 -8 -13 -5 0 4 -17 0 -38 -7 -20 -7 -72 -14 -116 -15 -67 -2 -80 0 -91 17
-10 13 -27 19 -62 21 -26 1 -51 5 -56 10 -5 5 -4 26 2 47 18 64 14 112 -9 124
-11 6 -25 8 -30 5 -6 -3 -10 -3 -11 2 0 4 -2 18 -5 30 -2 12 5 32 15 44 16 20
21 21 35 10 10 -8 16 -9 16 -3 0 6 -8 16 -19 21 -18 10 -18 12 -1 63 30 89 32
127 5 144 -21 14 -21 16 -9 65 22 86 19 144 -12 218 -9 20 -17 41 -18 47 -1 6
-12 24 -24 40 -13 16 -32 44 -42 62 -11 17 -28 32 -38 32 -10 0 -35 15 -55 34
-20 18 -61 41 -90 51 -28 9 -85 35 -126 56 -41 21 -83 39 -93 39 -10 0 -38 10
-61 22 -44 23 -56 27 -97 31 -14 2 -34 8 -45 14 -37 19 -89 32 -155 38 -36 3
-102 19 -147 35 -45 15 -84 26 -87 23 -10 -10 -96 -4 -118 8 -12 7 -79 13
-157 15 -75 1 -149 4 -166 5 -16 1 -48 1 -70 0 -22 -1 -77 0 -123 2 -45 3 -84
1 -87 -3 -3 -4 -23 -4 -45 0 -21 4 -42 5 -45 2z"/>
</g>
</svg>
