<svg xmlns="http://www.w3.org/2000/svg" version="1.1" xmlns:xlink="http://www.w3.org/1999/xlink" xmlns:svgjs="http://svgjs.com/svgjs" width="1440" height="560" preserveAspectRatio="none" viewBox="0 0 1440 560"><g mask="url(&quot;#SvgjsMask1107&quot;)" fill="none"><rect width="1440" height="560" x="0" y="0" fill="url(#SvgjsLinearGradient1108)"></rect><g mask="url(&quot;#SvgjsMask1109&quot;)"><path d="M337.5 262.5L362.5 237.5L387.5 237.5L412.5 237.5M262.5 262.5L287.5 287.5L312.5 287.5L337.5 287.5L362.5 287.5L387.5 287.5L412.5 287.5M137.5 262.5L162.5 287.5M712.5 262.5L737.5 287.5M537.5 262.5L562.5 237.5L587.5 237.5M237.5 262.5L262.5 287.5L287.5 312.5M562.5 262.5L587.5 287.5L612.5 287.5L637.5 312.5L662.5 312.5M187.5 262.5L212.5 287.5L237.5 287.5L262.5 312.5M-12.5 287.5L12.5 287.5L37.5 287.5L62.5 287.5L87.5 287.5L112.5 262.5L137.5 262.5L162.5 262.5L187.5 262.5L212.5 262.5L237.5 262.5L262.5 262.5L287.5 262.5L312.5 262.5L337.5 262.5L362.5 262.5L387.5 262.5L412.5 262.5L437.5 262.5L462.5 262.5L487.5 262.5L512.5 262.5L537.5 262.5L562.5 262.5L587.5 262.5L612.5 262.5L637.5 287.5L662.5 287.5L687.5 287.5L712.5 262.5L737.5 262.5L762.5 262.5" stroke="rgba(173, 88, 116, 1)" stroke-width="4.17"></path><path d="M756.25 262.5 a6.25 6.25 0 1 0 12.5 0 a6.25 6.25 0 1 0 -12.5 0zM406.25 237.5 a6.25 6.25 0 1 0 12.5 0 a6.25 6.25 0 1 0 -12.5 0zM406.25 287.5 a6.25 6.25 0 1 0 12.5 0 a6.25 6.25 0 1 0 -12.5 0zM156.25 287.5 a6.25 6.25 0 1 0 12.5 0 a6.25 6.25 0 1 0 -12.5 0zM731.25 287.5 a6.25 6.25 0 1 0 12.5 0 a6.25 6.25 0 1 0 -12.5 0zM581.25 237.5 a6.25 6.25 0 1 0 12.5 0 a6.25 6.25 0 1 0 -12.5 0zM281.25 312.5 a6.25 6.25 0 1 0 12.5 0 a6.25 6.25 0 1 0 -12.5 0zM656.25 312.5 a6.25 6.25 0 1 0 12.5 0 a6.25 6.25 0 1 0 -12.5 0zM256.25 312.5 a6.25 6.25 0 1 0 12.5 0 a6.25 6.25 0 1 0 -12.5 0z" fill="rgba(173, 88, 116, 1)"></path><path d="M-12.5 262.5L12.5 262.5L37.5 262.5L62.5 262.5L87.5 262.5L112.5 237.5L137.5 237.5L162.5 237.5L187.5 237.5L212.5 237.5L237.5 237.5L262.5 237.5" stroke="rgba(249, 248, 113, 1)" stroke-width="4.17"></path><path d="M256.25 237.5 a6.25 6.25 0 1 0 12.5 0 a6.25 6.25 0 1 0 -12.5 0z" fill="rgba(249, 248, 113, 1)"></path><path d="M762.5 312.5L787.5 312.5M837.5 312.5L862.5 287.5L887.5 287.5L912.5 287.5L937.5 287.5L962.5 287.5L987.5 287.5L1012.5 287.5L1037.5 287.5L1062.5 262.5L1087.5 237.5L1112.5 237.5M337.5 337.5L362.5 312.5M137.5 337.5L162.5 312.5L187.5 312.5L212.5 312.5L237.5 312.5M112.5 337.5L137.5 312.5M312.5 337.5L337.5 312.5M662.5 337.5L687.5 337.5L712.5 337.5L737.5 337.5L762.5 337.5L787.5 362.5L812.5 362.5L837.5 362.5L862.5 362.5L887.5 362.5L912.5 362.5L937.5 362.5L962.5 362.5L987.5 362.5M987.5 312.5L1012.5 337.5L1037.5 337.5L1062.5 337.5M487.5 362.5L512.5 337.5L537.5 337.5L562.5 337.5L587.5 337.5L612.5 337.5M387.5 337.5L412.5 337.5L437.5 337.5L462.5 337.5L487.5 337.5M887.5 312.5L912.5 337.5L937.5 337.5L962.5 337.5L987.5 337.5M-12.5 312.5L12.5 312.5L37.5 312.5L62.5 312.5L87.5 312.5L112.5 337.5L137.5 337.5L162.5 337.5L187.5 337.5L212.5 337.5L237.5 337.5L262.5 337.5L287.5 337.5L312.5 337.5L337.5 337.5L362.5 337.5L387.5 337.5L412.5 362.5L437.5 362.5L462.5 362.5L487.5 362.5L512.5 362.5L537.5 362.5L562.5 362.5L587.5 362.5L612.5 362.5L637.5 362.5L662.5 337.5L687.5 312.5L712.5 312.5L737.5 312.5L762.5 312.5L787.5 337.5L812.5 337.5L837.5 312.5L862.5 312.5L887.5 312.5L912.5 312.5L937.5 312.5L962.5 312.5L987.5 312.5L1012.5 312.5L1037.5 312.5L1062.5 287.5L1087.5 262.5" stroke="rgba(173, 88, 116, 1)" stroke-width="4.17"></path><path d="M1081.25 262.5 a6.25 6.25 0 1 0 12.5 0 a6.25 6.25 0 1 0 -12.5 0zM781.25 312.5 a6.25 6.25 0 1 0 12.5 0 a6.25 6.25 0 1 0 -12.5 0zM1106.25 237.5 a6.25 6.25 0 1 0 12.5 0 a6.25 6.25 0 1 0 -12.5 0zM356.25 312.5 a6.25 6.25 0 1 0 12.5 0 a6.25 6.25 0 1 0 -12.5 0zM231.25 312.5 a6.25 6.25 0 1 0 12.5 0 a6.25 6.25 0 1 0 -12.5 0zM131.25 312.5 a6.25 6.25 0 1 0 12.5 0 a6.25 6.25 0 1 0 -12.5 0zM331.25 312.5 a6.25 6.25 0 1 0 12.5 0 a6.25 6.25 0 1 0 -12.5 0zM981.25 362.5 a6.25 6.25 0 1 0 12.5 0 a6.25 6.25 0 1 0 -12.5 0zM1056.25 337.5 a6.25 6.25 0 1 0 12.5 0 a6.25 6.25 0 1 0 -12.5 0zM606.25 337.5 a6.25 6.25 0 1 0 12.5 0 a6.25 6.25 0 1 0 -12.5 0zM481.25 337.5 a6.25 6.25 0 1 0 12.5 0 a6.25 6.25 0 1 0 -12.5 0zM981.25 337.5 a6.25 6.25 0 1 0 12.5 0 a6.25 6.25 0 1 0 -12.5 0z" fill="rgba(173, 88, 116, 1)"></path><path d="M637.5 187.5L662.5 162.5L687.5 162.5L712.5 162.5L737.5 162.5M1062.5 212.5L1087.5 187.5L1112.5 187.5M412.5 212.5L437.5 187.5L462.5 187.5L487.5 187.5L512.5 187.5L537.5 187.5L562.5 187.5L587.5 187.5L612.5 162.5M712.5 187.5L737.5 212.5L762.5 212.5L787.5 212.5L812.5 212.5L837.5 212.5L862.5 212.5M787.5 162.5L812.5 162.5L837.5 162.5L862.5 162.5L887.5 162.5L912.5 162.5L937.5 162.5L962.5 162.5L987.5 162.5L1012.5 162.5L1037.5 162.5L1062.5 162.5L1087.5 162.5L1112.5 162.5M512.5 212.5L537.5 237.5M762.5 162.5L787.5 187.5M662.5 187.5L687.5 212.5L712.5 212.5L737.5 237.5M437.5 212.5L462.5 237.5L487.5 237.5L512.5 237.5M362.5 212.5L387.5 187.5L412.5 187.5M1012.5 187.5L1037.5 187.5L1062.5 187.5M-12.5 237.5L12.5 237.5L37.5 237.5L62.5 237.5L87.5 237.5L112.5 212.5L137.5 212.5L162.5 212.5L187.5 212.5L212.5 212.5L237.5 212.5L262.5 212.5L287.5 212.5L312.5 212.5L337.5 212.5L362.5 212.5L387.5 212.5L412.5 212.5L437.5 212.5L462.5 212.5L487.5 212.5L512.5 212.5L537.5 212.5L562.5 212.5L587.5 212.5L612.5 187.5L637.5 187.5L662.5 187.5L687.5 187.5L712.5 187.5L737.5 187.5L762.5 162.5L787.5 162.5L812.5 187.5L837.5 187.5L862.5 187.5L887.5 187.5L912.5 187.5L937.5 187.5L962.5 187.5L987.5 187.5L1012.5 187.5L1037.5 212.5L1062.5 212.5L1087.5 212.5L1112.5 212.5" stroke="rgba(249, 248, 113, 1)" stroke-width="4.17"></path><path d="M1106.25 212.5 a6.25 6.25 0 1 0 12.5 0 a6.25 6.25 0 1 0 -12.5 0zM731.25 162.5 a6.25 6.25 0 1 0 12.5 0 a6.25 6.25 0 1 0 -12.5 0zM1106.25 187.5 a6.25 6.25 0 1 0 12.5 0 a6.25 6.25 0 1 0 -12.5 0zM606.25 162.5 a6.25 6.25 0 1 0 12.5 0 a6.25 6.25 0 1 0 -12.5 0zM856.25 212.5 a6.25 6.25 0 1 0 12.5 0 a6.25 6.25 0 1 0 -12.5 0zM1106.25 162.5 a6.25 6.25 0 1 0 12.5 0 a6.25 6.25 0 1 0 -12.5 0zM531.25 237.5 a6.25 6.25 0 1 0 12.5 0 a6.25 6.25 0 1 0 -12.5 0zM781.25 187.5 a6.25 6.25 0 1 0 12.5 0 a6.25 6.25 0 1 0 -12.5 0zM731.25 237.5 a6.25 6.25 0 1 0 12.5 0 a6.25 6.25 0 1 0 -12.5 0zM506.25 237.5 a6.25 6.25 0 1 0 12.5 0 a6.25 6.25 0 1 0 -12.5 0zM406.25 187.5 a6.25 6.25 0 1 0 12.5 0 a6.25 6.25 0 1 0 -12.5 0zM1056.25 187.5 a6.25 6.25 0 1 0 12.5 0 a6.25 6.25 0 1 0 -12.5 0z" fill="rgba(249, 248, 113, 1)"></path><path d="M537.5 387.5L562.5 412.5L587.5 412.5L612.5 412.5L637.5 412.5M712.5 387.5L737.5 362.5L762.5 362.5M437.5 387.5L462.5 412.5L487.5 412.5M337.5 362.5L362.5 387.5L387.5 387.5L412.5 412.5M512.5 387.5L537.5 412.5L562.5 437.5M687.5 387.5L712.5 362.5M312.5 362.5L337.5 387.5L362.5 412.5M737.5 387.5L762.5 412.5L787.5 412.5L812.5 412.5L837.5 437.5L862.5 437.5M-12.5 337.5L12.5 337.5L37.5 337.5L62.5 337.5L87.5 337.5L112.5 362.5L137.5 362.5L162.5 362.5L187.5 362.5L212.5 362.5L237.5 362.5L262.5 362.5L287.5 362.5L312.5 362.5L337.5 362.5L362.5 362.5L387.5 362.5L412.5 387.5L437.5 387.5L462.5 387.5L487.5 387.5L512.5 387.5L537.5 387.5L562.5 387.5L587.5 387.5L612.5 387.5L637.5 387.5L662.5 387.5L687.5 387.5L712.5 387.5L737.5 387.5L762.5 387.5L787.5 387.5" stroke="rgba(173, 88, 116, 1)" stroke-width="4.17"></path><path d="M781.25 387.5 a6.25 6.25 0 1 0 12.5 0 a6.25 6.25 0 1 0 -12.5 0zM631.25 412.5 a6.25 6.25 0 1 0 12.5 0 a6.25 6.25 0 1 0 -12.5 0zM756.25 362.5 a6.25 6.25 0 1 0 12.5 0 a6.25 6.25 0 1 0 -12.5 0zM481.25 412.5 a6.25 6.25 0 1 0 12.5 0 a6.25 6.25 0 1 0 -12.5 0zM406.25 412.5 a6.25 6.25 0 1 0 12.5 0 a6.25 6.25 0 1 0 -12.5 0zM556.25 437.5 a6.25 6.25 0 1 0 12.5 0 a6.25 6.25 0 1 0 -12.5 0zM706.25 362.5 a6.25 6.25 0 1 0 12.5 0 a6.25 6.25 0 1 0 -12.5 0zM356.25 412.5 a6.25 6.25 0 1 0 12.5 0 a6.25 6.25 0 1 0 -12.5 0zM856.25 437.5 a6.25 6.25 0 1 0 12.5 0 a6.25 6.25 0 1 0 -12.5 0z" fill="rgba(173, 88, 116, 1)"></path><path d="M-12.5 212.5L12.5 212.5L37.5 212.5L62.5 212.5L87.5 212.5L112.5 187.5L137.5 187.5" stroke="rgba(249, 248, 113, 1)" stroke-width="4.17"></path><path d="M131.25 187.5 a6.25 6.25 0 1 0 12.5 0 a6.25 6.25 0 1 0 -12.5 0z" fill="rgba(249, 248, 113, 1)"></path><path d="M312.5 412.5L337.5 412.5M212.5 387.5L237.5 412.5L262.5 412.5M262.5 387.5L287.5 387.5L312.5 387.5M-12.5 362.5L12.5 362.5L37.5 362.5L62.5 362.5L87.5 362.5L112.5 387.5L137.5 387.5L162.5 387.5L187.5 387.5L212.5 387.5L237.5 387.5L262.5 387.5L287.5 412.5L312.5 412.5L337.5 437.5L362.5 437.5L387.5 437.5" stroke="rgba(249, 248, 113, 1)" stroke-width="4.17"></path><path d="M381.25 437.5 a6.25 6.25 0 1 0 12.5 0 a6.25 6.25 0 1 0 -12.5 0zM331.25 412.5 a6.25 6.25 0 1 0 12.5 0 a6.25 6.25 0 1 0 -12.5 0zM256.25 412.5 a6.25 6.25 0 1 0 12.5 0 a6.25 6.25 0 1 0 -12.5 0zM306.25 387.5 a6.25 6.25 0 1 0 12.5 0 a6.25 6.25 0 1 0 -12.5 0z" fill="rgba(249, 248, 113, 1)"></path><path d="M262.5 187.5L287.5 162.5L312.5 162.5L337.5 137.5M212.5 187.5L237.5 162.5L262.5 162.5M387.5 162.5L412.5 137.5L437.5 137.5L462.5 137.5L487.5 137.5L512.5 137.5M337.5 162.5L362.5 187.5M512.5 162.5L537.5 162.5L562.5 162.5L587.5 162.5L612.5 137.5L637.5 137.5L662.5 137.5M362.5 162.5L387.5 137.5M-12.5 187.5L12.5 187.5L37.5 187.5L62.5 187.5L87.5 187.5L112.5 162.5L137.5 162.5L162.5 187.5L187.5 187.5L212.5 187.5L237.5 187.5L262.5 187.5L287.5 187.5L312.5 187.5L337.5 162.5L362.5 162.5L387.5 162.5L412.5 162.5L437.5 162.5L462.5 162.5L487.5 162.5L512.5 162.5L537.5 137.5L562.5 137.5" stroke="rgba(173, 88, 116, 1)" stroke-width="4.17"></path><path d="M556.25 137.5 a6.25 6.25 0 1 0 12.5 0 a6.25 6.25 0 1 0 -12.5 0zM331.25 137.5 a6.25 6.25 0 1 0 12.5 0 a6.25 6.25 0 1 0 -12.5 0zM256.25 162.5 a6.25 6.25 0 1 0 12.5 0 a6.25 6.25 0 1 0 -12.5 0zM506.25 137.5 a6.25 6.25 0 1 0 12.5 0 a6.25 6.25 0 1 0 -12.5 0zM356.25 187.5 a6.25 6.25 0 1 0 12.5 0 a6.25 6.25 0 1 0 -12.5 0zM656.25 137.5 a6.25 6.25 0 1 0 12.5 0 a6.25 6.25 0 1 0 -12.5 0zM381.25 137.5 a6.25 6.25 0 1 0 12.5 0 a6.25 6.25 0 1 0 -12.5 0z" fill="rgba(173, 88, 116, 1)"></path><path d="M212.5 437.5L237.5 462.5L262.5 462.5L287.5 462.5M387.5 462.5L412.5 487.5L437.5 487.5M437.5 462.5L462.5 437.5L487.5 437.5L512.5 437.5L537.5 437.5M462.5 462.5L487.5 487.5L512.5 487.5M612.5 437.5L637.5 462.5L662.5 462.5L687.5 462.5M337.5 462.5L362.5 487.5L387.5 487.5M-12.5 387.5L12.5 387.5L37.5 387.5L62.5 387.5L87.5 387.5L112.5 412.5L137.5 412.5L162.5 412.5L187.5 412.5L212.5 437.5L237.5 437.5L262.5 437.5L287.5 437.5L312.5 437.5L337.5 462.5L362.5 462.5L387.5 462.5L412.5 462.5L437.5 462.5L462.5 462.5L487.5 462.5L512.5 462.5L537.5 462.5L562.5 462.5L587.5 437.5L612.5 437.5L637.5 437.5" stroke="rgba(249, 248, 113, 1)" stroke-width="4.17"></path><path d="M631.25 437.5 a6.25 6.25 0 1 0 12.5 0 a6.25 6.25 0 1 0 -12.5 0zM281.25 462.5 a6.25 6.25 0 1 0 12.5 0 a6.25 6.25 0 1 0 -12.5 0zM431.25 487.5 a6.25 6.25 0 1 0 12.5 0 a6.25 6.25 0 1 0 -12.5 0zM531.25 437.5 a6.25 6.25 0 1 0 12.5 0 a6.25 6.25 0 1 0 -12.5 0zM506.25 487.5 a6.25 6.25 0 1 0 12.5 0 a6.25 6.25 0 1 0 -12.5 0zM681.25 462.5 a6.25 6.25 0 1 0 12.5 0 a6.25 6.25 0 1 0 -12.5 0zM381.25 487.5 a6.25 6.25 0 1 0 12.5 0 a6.25 6.25 0 1 0 -12.5 0z" fill="rgba(249, 248, 113, 1)"></path><path d="M237.5 137.5L262.5 112.5L287.5 87.5L312.5 87.5L337.5 87.5L362.5 62.5L387.5 62.5L412.5 62.5M212.5 137.5L237.5 112.5L262.5 87.5L287.5 62.5L312.5 62.5L337.5 62.5M112.5 137.5L137.5 112.5L162.5 112.5L187.5 112.5M887.5 112.5L912.5 87.5L937.5 87.5L962.5 87.5L987.5 87.5L1012.5 87.5L1037.5 87.5L1062.5 87.5L1087.5 112.5L1112.5 112.5M762.5 87.5L787.5 62.5M462.5 112.5L487.5 87.5L512.5 87.5L537.5 87.5L562.5 62.5L587.5 62.5L612.5 62.5L637.5 62.5M12.5 162.5L37.5 137.5L62.5 112.5M162.5 137.5L187.5 162.5L212.5 162.5M837.5 112.5L862.5 137.5L887.5 137.5M-12.5 162.5L12.5 162.5L37.5 162.5L62.5 162.5L87.5 162.5L112.5 137.5L137.5 137.5L162.5 137.5L187.5 137.5L212.5 137.5L237.5 137.5L262.5 137.5L287.5 112.5L312.5 112.5L337.5 112.5L362.5 112.5L387.5 112.5L412.5 112.5L437.5 112.5L462.5 112.5L487.5 112.5L512.5 112.5L537.5 112.5L562.5 87.5L587.5 87.5L612.5 87.5L637.5 87.5L662.5 87.5L687.5 87.5L712.5 87.5L737.5 87.5L762.5 87.5L787.5 87.5L812.5 87.5L837.5 112.5L862.5 112.5L887.5 112.5L912.5 112.5L937.5 112.5" stroke="rgba(173, 88, 116, 1)" stroke-width="4.17"></path><path d="M931.25 112.5 a6.25 6.25 0 1 0 12.5 0 a6.25 6.25 0 1 0 -12.5 0zM406.25 62.5 a6.25 6.25 0 1 0 12.5 0 a6.25 6.25 0 1 0 -12.5 0zM331.25 62.5 a6.25 6.25 0 1 0 12.5 0 a6.25 6.25 0 1 0 -12.5 0zM181.25 112.5 a6.25 6.25 0 1 0 12.5 0 a6.25 6.25 0 1 0 -12.5 0zM1106.25 112.5 a6.25 6.25 0 1 0 12.5 0 a6.25 6.25 0 1 0 -12.5 0zM781.25 62.5 a6.25 6.25 0 1 0 12.5 0 a6.25 6.25 0 1 0 -12.5 0zM631.25 62.5 a6.25 6.25 0 1 0 12.5 0 a6.25 6.25 0 1 0 -12.5 0zM56.25 112.5 a6.25 6.25 0 1 0 12.5 0 a6.25 6.25 0 1 0 -12.5 0zM206.25 162.5 a6.25 6.25 0 1 0 12.5 0 a6.25 6.25 0 1 0 -12.5 0zM881.25 137.5 a6.25 6.25 0 1 0 12.5 0 a6.25 6.25 0 1 0 -12.5 0z" fill="rgba(173, 88, 116, 1)"></path></g></g><defs><mask id="SvgjsMask1107"><rect width="1440" height="560" fill="#ffffff"></rect></mask><linearGradient x1="15.28%" y1="139.29%" x2="84.72%" y2="-39.29%" gradientUnits="userSpaceOnUse" id="SvgjsLinearGradient1108"><stop stop-color="#0e2a47" offset="0"></stop><stop stop-color="rgba(35, 40, 68, 1)" offset="1"></stop></linearGradient><mask id="SvgjsMask1109"><rect width="1440" height="560" fill="white"></rect><path d="M759.37 262.5 a3.13 3.13 0 1 0 6.26 0 a3.13 3.13 0 1 0 -6.26 0zM409.37 237.5 a3.13 3.13 0 1 0 6.26 0 a3.13 3.13 0 1 0 -6.26 0zM409.37 287.5 a3.13 3.13 0 1 0 6.26 0 a3.13 3.13 0 1 0 -6.26 0zM159.37 287.5 a3.13 3.13 0 1 0 6.26 0 a3.13 3.13 0 1 0 -6.26 0zM734.37 287.5 a3.13 3.13 0 1 0 6.26 0 a3.13 3.13 0 1 0 -6.26 0zM584.37 237.5 a3.13 3.13 0 1 0 6.26 0 a3.13 3.13 0 1 0 -6.26 0zM284.37 312.5 a3.13 3.13 0 1 0 6.26 0 a3.13 3.13 0 1 0 -6.26 0zM659.37 312.5 a3.13 3.13 0 1 0 6.26 0 a3.13 3.13 0 1 0 -6.26 0zM259.37 312.5 a3.13 3.13 0 1 0 6.26 0 a3.13 3.13 0 1 0 -6.26 0z" fill="black"></path><path d="M259.37 237.5 a3.13 3.13 0 1 0 6.26 0 a3.13 3.13 0 1 0 -6.26 0z" fill="black"></path><path d="M1084.37 262.5 a3.13 3.13 0 1 0 6.26 0 a3.13 3.13 0 1 0 -6.26 0zM784.37 312.5 a3.13 3.13 0 1 0 6.26 0 a3.13 3.13 0 1 0 -6.26 0zM1109.37 237.5 a3.13 3.13 0 1 0 6.26 0 a3.13 3.13 0 1 0 -6.26 0zM359.37 312.5 a3.13 3.13 0 1 0 6.26 0 a3.13 3.13 0 1 0 -6.26 0zM234.37 312.5 a3.13 3.13 0 1 0 6.26 0 a3.13 3.13 0 1 0 -6.26 0zM134.37 312.5 a3.13 3.13 0 1 0 6.26 0 a3.13 3.13 0 1 0 -6.26 0zM334.37 312.5 a3.13 3.13 0 1 0 6.26 0 a3.13 3.13 0 1 0 -6.26 0zM984.37 362.5 a3.13 3.13 0 1 0 6.26 0 a3.13 3.13 0 1 0 -6.26 0zM1059.37 337.5 a3.13 3.13 0 1 0 6.26 0 a3.13 3.13 0 1 0 -6.26 0zM609.37 337.5 a3.13 3.13 0 1 0 6.26 0 a3.13 3.13 0 1 0 -6.26 0zM484.37 337.5 a3.13 3.13 0 1 0 6.26 0 a3.13 3.13 0 1 0 -6.26 0zM984.37 337.5 a3.13 3.13 0 1 0 6.26 0 a3.13 3.13 0 1 0 -6.26 0z" fill="black"></path><path d="M1109.37 212.5 a3.13 3.13 0 1 0 6.26 0 a3.13 3.13 0 1 0 -6.26 0zM734.37 162.5 a3.13 3.13 0 1 0 6.26 0 a3.13 3.13 0 1 0 -6.26 0zM1109.37 187.5 a3.13 3.13 0 1 0 6.26 0 a3.13 3.13 0 1 0 -6.26 0zM609.37 162.5 a3.13 3.13 0 1 0 6.26 0 a3.13 3.13 0 1 0 -6.26 0zM859.37 212.5 a3.13 3.13 0 1 0 6.26 0 a3.13 3.13 0 1 0 -6.26 0zM1109.37 162.5 a3.13 3.13 0 1 0 6.26 0 a3.13 3.13 0 1 0 -6.26 0zM534.37 237.5 a3.13 3.13 0 1 0 6.26 0 a3.13 3.13 0 1 0 -6.26 0zM784.37 187.5 a3.13 3.13 0 1 0 6.26 0 a3.13 3.13 0 1 0 -6.26 0zM734.37 237.5 a3.13 3.13 0 1 0 6.26 0 a3.13 3.13 0 1 0 -6.26 0zM509.37 237.5 a3.13 3.13 0 1 0 6.26 0 a3.13 3.13 0 1 0 -6.26 0zM409.37 187.5 a3.13 3.13 0 1 0 6.26 0 a3.13 3.13 0 1 0 -6.26 0zM1059.37 187.5 a3.13 3.13 0 1 0 6.26 0 a3.13 3.13 0 1 0 -6.26 0z" fill="black"></path><path d="M784.37 387.5 a3.13 3.13 0 1 0 6.26 0 a3.13 3.13 0 1 0 -6.26 0zM634.37 412.5 a3.13 3.13 0 1 0 6.26 0 a3.13 3.13 0 1 0 -6.26 0zM759.37 362.5 a3.13 3.13 0 1 0 6.26 0 a3.13 3.13 0 1 0 -6.26 0zM484.37 412.5 a3.13 3.13 0 1 0 6.26 0 a3.13 3.13 0 1 0 -6.26 0zM409.37 412.5 a3.13 3.13 0 1 0 6.26 0 a3.13 3.13 0 1 0 -6.26 0zM559.37 437.5 a3.13 3.13 0 1 0 6.26 0 a3.13 3.13 0 1 0 -6.26 0zM709.37 362.5 a3.13 3.13 0 1 0 6.26 0 a3.13 3.13 0 1 0 -6.26 0zM359.37 412.5 a3.13 3.13 0 1 0 6.26 0 a3.13 3.13 0 1 0 -6.26 0zM859.37 437.5 a3.13 3.13 0 1 0 6.26 0 a3.13 3.13 0 1 0 -6.26 0z" fill="black"></path><path d="M134.37 187.5 a3.13 3.13 0 1 0 6.26 0 a3.13 3.13 0 1 0 -6.26 0z" fill="black"></path><path d="M384.37 437.5 a3.13 3.13 0 1 0 6.26 0 a3.13 3.13 0 1 0 -6.26 0zM334.37 412.5 a3.13 3.13 0 1 0 6.26 0 a3.13 3.13 0 1 0 -6.26 0zM259.37 412.5 a3.13 3.13 0 1 0 6.26 0 a3.13 3.13 0 1 0 -6.26 0zM309.37 387.5 a3.13 3.13 0 1 0 6.26 0 a3.13 3.13 0 1 0 -6.26 0z" fill="black"></path><path d="M559.37 137.5 a3.13 3.13 0 1 0 6.26 0 a3.13 3.13 0 1 0 -6.26 0zM334.37 137.5 a3.13 3.13 0 1 0 6.26 0 a3.13 3.13 0 1 0 -6.26 0zM259.37 162.5 a3.13 3.13 0 1 0 6.26 0 a3.13 3.13 0 1 0 -6.26 0zM509.37 137.5 a3.13 3.13 0 1 0 6.26 0 a3.13 3.13 0 1 0 -6.26 0zM359.37 187.5 a3.13 3.13 0 1 0 6.26 0 a3.13 3.13 0 1 0 -6.26 0zM659.37 137.5 a3.13 3.13 0 1 0 6.26 0 a3.13 3.13 0 1 0 -6.26 0zM384.37 137.5 a3.13 3.13 0 1 0 6.26 0 a3.13 3.13 0 1 0 -6.26 0z" fill="black"></path><path d="M634.37 437.5 a3.13 3.13 0 1 0 6.26 0 a3.13 3.13 0 1 0 -6.26 0zM284.37 462.5 a3.13 3.13 0 1 0 6.26 0 a3.13 3.13 0 1 0 -6.26 0zM434.37 487.5 a3.13 3.13 0 1 0 6.26 0 a3.13 3.13 0 1 0 -6.26 0zM534.37 437.5 a3.13 3.13 0 1 0 6.26 0 a3.13 3.13 0 1 0 -6.26 0zM509.37 487.5 a3.13 3.13 0 1 0 6.26 0 a3.13 3.13 0 1 0 -6.26 0zM684.37 462.5 a3.13 3.13 0 1 0 6.26 0 a3.13 3.13 0 1 0 -6.26 0zM384.37 487.5 a3.13 3.13 0 1 0 6.26 0 a3.13 3.13 0 1 0 -6.26 0z" fill="black"></path><path d="M934.37 112.5 a3.13 3.13 0 1 0 6.26 0 a3.13 3.13 0 1 0 -6.26 0zM409.37 62.5 a3.13 3.13 0 1 0 6.26 0 a3.13 3.13 0 1 0 -6.26 0zM334.37 62.5 a3.13 3.13 0 1 0 6.26 0 a3.13 3.13 0 1 0 -6.26 0zM184.37 112.5 a3.13 3.13 0 1 0 6.26 0 a3.13 3.13 0 1 0 -6.26 0zM1109.37 112.5 a3.13 3.13 0 1 0 6.26 0 a3.13 3.13 0 1 0 -6.26 0zM784.37 62.5 a3.13 3.13 0 1 0 6.26 0 a3.13 3.13 0 1 0 -6.26 0zM634.37 62.5 a3.13 3.13 0 1 0 6.26 0 a3.13 3.13 0 1 0 -6.26 0zM59.37 112.5 a3.13 3.13 0 1 0 6.26 0 a3.13 3.13 0 1 0 -6.26 0zM209.37 162.5 a3.13 3.13 0 1 0 6.26 0 a3.13 3.13 0 1 0 -6.26 0zM884.37 137.5 a3.13 3.13 0 1 0 6.26 0 a3.13 3.13 0 1 0 -6.26 0z" fill="black"></path></mask></defs></svg>